<svg width="100" height="100" viewBox="0 0 30 60" fill="none" xmlns="http://www.w3.org/2000/svg">
<path d="M4.87909 15.4191C5.47616 11.4333 9.2211 8.16861 13.2591 8.15382C22.4928 8.12002 36.9318 8.24481 34.601 9.39253C32.3565 10.4978 29.6826 27.3118 28.4168 37.7071C27.8813 42.1051 23.8785 45.5031 19.4571 45.3128L7.44327 44.7957C3.56485 44.6287 0.976686 41.4704 1.55494 37.6101L4.87909 15.4191Z" fill="url(#paint0_linear_511_5601)"/>
<path d="M21.0745 25.2418L20.6346 28.3089L12.1756 23.7217L11.3952 29.1625C11.3669 31.5582 14.4601 30.9807 14.1693 33.0077L13.7906 35.6481C9.46363 33.7782 7.83088 32.582 7.96687 29.8779L9.64252 18.1963L20.086 24.1384C20.6732 24.4415 20.9043 24.6743 21.0745 25.2418Z" fill="white"/>
<path d="M12.7914 28.8227L13.3712 25.7802L21.5639 30.4245L22.3329 25.0637C22.4454 22.4805 19.2899 22.4016 19.7656 20.976L20.1252 18.469C24.7189 20.6692 26.1172 21.8942 25.8033 24.0549L24.0932 35.9766L13.0999 29.6699C12.8227 29.5263 12.8002 29.2871 12.7914 28.8227Z" fill="white"/>
<defs>
<linearGradient id="paint0_linear_511_5601" x1="43.5236" y1="45.8259" x2="4.27738" y2="72.829" gradientUnits="userSpaceOnUse">
<stop stop-color="#591ED2"/>
<stop offset="0.164583" stop-color="#6228D5"/>
<stop offset="0.315625" stop-color="#874EFE"/>
<stop offset="0.440625" stop-color="#5E24D4"/>
<stop offset="1" stop-color="#5F25D4"/>
</linearGradient>
</defs>
</svg>
