<svg width="168" height="58" viewBox="0 0 168 58" fill="none" xmlns="http://www.w3.org/2000/svg">
<path d="M60.2483 13.6969L57.343 30.5089L41.7318 12.3798L36.8897 40.813H42.1967L45.102 23.9623L60.7131 42.1301L65.5553 13.6969H60.2483ZM65.0777 31.9034C64.8711 33.6337 65.0906 35.209 65.7362 36.6294C66.4077 38.0239 67.4019 39.1344 68.719 39.9608C70.0619 40.7613 71.6372 41.1616 73.445 41.1616C75.3043 41.1616 77.0088 40.7613 78.5583 39.9608C80.1336 39.1602 81.4377 38.0626 82.4707 36.6681C83.5037 35.2736 84.1364 33.6853 84.3689 31.9034C84.6013 30.1732 84.3818 28.6107 83.7103 27.2162C83.0647 25.7958 82.0704 24.6725 80.7276 23.8461C79.4105 23.0197 77.8352 22.6065 76.0016 22.6065C74.168 22.6065 72.4636 23.0068 70.8883 23.8073C69.3388 24.6079 68.0476 25.7055 67.0146 27.1C65.9816 28.4945 65.3359 30.0957 65.0777 31.9034ZM70.1135 31.9034C70.2685 30.9737 70.6042 30.1215 71.1207 29.3468C71.6372 28.572 72.2957 27.9522 73.0963 27.4874C73.8969 27.0225 74.7362 26.803 75.6142 26.8288C76.5181 26.8288 77.267 27.0742 77.861 27.5648C78.455 28.0555 78.8811 28.6753 79.1393 29.4242C79.3976 30.1732 79.4621 30.9995 79.333 31.9034C79.2039 32.8073 78.8682 33.6466 78.3258 34.4213C77.8093 35.1961 77.1508 35.8159 76.3502 36.2807C75.5755 36.7197 74.7233 36.9393 73.7936 36.9393C72.9155 36.9134 72.1795 36.6681 71.5856 36.2033C70.9916 35.7384 70.5655 35.1186 70.3072 34.3439C70.049 33.5691 69.9844 32.7556 70.1135 31.9034ZM92.5267 22.9938H87.6458L84.5855 40.813H89.4664L92.5267 22.9938ZM96.8653 28.1846L99.6931 24.0397C99.3057 23.5749 98.8538 23.2134 98.3373 22.9551C97.8466 22.6969 97.2785 22.5677 96.6328 22.5677C95.5998 22.5677 94.6185 22.9293 93.6888 23.6524C92.7849 24.3755 91.9973 25.3052 91.3258 26.4415C90.6802 27.5519 90.2412 28.714 90.0088 29.9278L91.0934 31.3611C91.1967 30.638 91.4033 29.9666 91.7132 29.3468C92.0489 28.727 92.475 28.2234 92.9915 27.836C93.508 27.4228 94.102 27.2291 94.7734 27.2549C95.2125 27.2549 95.5869 27.3453 95.8968 27.5261C96.2326 27.7069 96.5554 27.9264 96.8653 28.1846ZM102.864 13.6969L98.2544 40.813H103.678L108.326 13.6969H102.864ZM105.382 18.3454H110.766C111.645 18.3454 112.381 18.5132 112.975 18.849C113.594 19.1589 114.046 19.6108 114.33 20.2048C114.614 20.7729 114.692 21.4702 114.563 22.2966C114.408 23.1488 114.072 23.8719 113.556 24.4659C113.039 25.0598 112.393 25.5118 111.619 25.8217C110.844 26.1057 110.018 26.2607 109.14 26.2865H104.026L103.174 30.9737H108.636C110.624 30.9479 112.419 30.5993 114.02 29.9278C115.622 29.2305 116.926 28.2363 117.933 26.945C118.966 25.6538 119.599 24.1172 119.831 22.3353C120.063 20.5534 119.844 19.0297 119.172 17.7643C118.527 16.4731 117.52 15.4788 116.151 14.7815C114.808 14.0584 113.181 13.6969 111.27 13.6969H106.157L105.382 18.3454ZM133.806 22.9938L130.784 40.813H135.626L138.687 22.9938H133.806ZM117.962 31.9034C117.73 33.582 117.872 35.1315 118.388 36.5519C118.905 37.9464 119.718 39.0698 120.829 39.922C121.939 40.7484 123.308 41.1616 124.935 41.1616C126.123 41.1616 127.22 40.9292 128.228 40.4644C129.235 39.9737 130.113 39.3022 130.862 38.45C131.636 37.5978 132.269 36.6165 132.76 35.506C133.276 34.3697 133.612 33.1688 133.767 31.9034C133.922 30.6896 133.922 29.5275 133.767 28.4171C133.612 27.3066 133.289 26.3252 132.799 25.473C132.308 24.595 131.649 23.8977 130.823 23.3812C129.997 22.8647 128.977 22.6065 127.763 22.6065C126.162 22.5806 124.651 22.9809 123.231 23.8073C121.836 24.6337 120.661 25.7442 119.705 27.1387C118.776 28.5333 118.195 30.1215 117.962 31.9034ZM123.076 31.9034C123.231 30.9479 123.579 30.0828 124.121 29.308C124.69 28.5074 125.374 27.8747 126.175 27.4099C127.001 26.945 127.866 26.7255 128.77 26.7514C129.39 26.7772 129.932 26.9321 130.397 27.2162C130.862 27.5003 131.249 27.8877 131.559 28.3783C131.869 28.8432 132.076 29.3726 132.179 29.9666C132.308 30.5605 132.321 31.2061 132.218 31.9034C132.088 32.6007 131.843 33.2592 131.482 33.879C131.146 34.4988 130.72 35.054 130.203 35.5447C129.713 36.0096 129.17 36.3711 128.576 36.6294C127.982 36.8876 127.375 37.0167 126.756 37.0167C125.852 36.9909 125.103 36.7456 124.509 36.2807C123.915 35.8159 123.489 35.1961 123.231 34.4213C122.998 33.6208 122.946 32.7815 123.076 31.9034ZM158.175 22.9938H152.907L145.005 37.0555L147.484 37.1717L144.269 22.9938H138.962L143.455 38.8761L137.18 49.2965H142.371L158.175 22.9938Z" fill="#591ED2"/>
<path d="M4.87909 15.4191C5.47616 11.4333 9.2211 8.16861 13.2591 8.15382C22.4928 8.12002 36.9318 8.24481 34.601 9.39253C32.3565 10.4978 29.6826 27.3118 28.4168 37.7071C27.8813 42.1051 23.8785 45.5031 19.4571 45.3128L7.44327 44.7957C3.56485 44.6287 0.976686 41.4704 1.55494 37.6101L4.87909 15.4191Z" fill="url(#paint0_linear_511_5601)"/>
<path d="M21.0745 25.2418L20.6346 28.3089L12.1756 23.7217L11.3952 29.1625C11.3669 31.5582 14.4601 30.9807 14.1693 33.0077L13.7906 35.6481C9.46363 33.7782 7.83088 32.582 7.96687 29.8779L9.64252 18.1963L20.086 24.1384C20.6732 24.4415 20.9043 24.6743 21.0745 25.2418Z" fill="white"/>
<path d="M12.7914 28.8227L13.3712 25.7802L21.5639 30.4245L22.3329 25.0637C22.4454 22.4805 19.2899 22.4016 19.7656 20.976L20.1252 18.469C24.7189 20.6692 26.1172 21.8942 25.8033 24.0549L24.0932 35.9766L13.0999 29.6699C12.8227 29.5263 12.8002 29.2871 12.7914 28.8227Z" fill="white"/>
<path d="M162.414 18.469H161.554V20.6747H160.972V18.469H160.123V18.0488H162.414V18.469ZM163.501 18.0488L164.224 19.9453L164.944 18.0488H165.705V20.6747H165.117V19.9453L165.182 18.7024L164.421 20.6747H164.024L163.266 18.7053L163.325 19.9453V20.6747H162.746V18.0488H163.501Z" fill="#591ED2"/>
<defs>
<linearGradient id="paint0_linear_511_5601" x1="43.5236" y1="45.8259" x2="4.27738" y2="72.829" gradientUnits="userSpaceOnUse">
<stop stop-color="#591ED2"/>
<stop offset="0.164583" stop-color="#6228D5"/>
<stop offset="0.315625" stop-color="#874EFE"/>
<stop offset="0.440625" stop-color="#5E24D4"/>
<stop offset="1" stop-color="#5F25D4"/>
</linearGradient>
</defs>
</svg>